# xmcd CD database file
#
# Track frame offsets:
#	150
#	21060
#	40795
#
# Disc length: 823 seconds
#
# Revision: 1
# Processed by: cddbd v1.5.1PL0 Copyright (c) Steve Scherf et al.
# Submitted via: CDex 1.51
#
DISCID=18033503
DTITLE=ペパーランドオレンジ - 夏の魔法　生きてる証拠
DYEAR=1992
DGENRE=JPop
TTITLE0=夏の魔法
TTITLE1=生きてる証拠
TTITLE2=夏の魔法（カラオケ）
EXTD=YEAR: 1992
EXTT0=
EXTT1=
EXTT2=
PLAYORDER=
